<?xml version="1.0" encoding="utf-8"?>
<!-- Generator: Adobe Illustrator 21.1.0, SVG Export Plug-In . SVG Version: 6.00 Build 0)  -->
<svg version="1.1" id="Layer_1" xmlns="http://www.w3.org/2000/svg" xmlns:xlink="http://www.w3.org/1999/xlink" x="0px" y="0px"
	 viewBox="0 0 1280 397.9" style="enable-background:new 0 0 1280 397.9;" xml:space="preserve">
<style type="text/css">
	.st0{fill:url(#SVGID_1_);}
</style>
<title>beach_1</title>
<g id="Layer_2">
	<g id="Layer_1-2">
		<linearGradient id="SVGID_1_" gradientUnits="userSpaceOnUse" x1="640" y1="397.8399" x2="640" y2="-9.094947e-13">
			<stop  offset="1.082549e-07" style="stop-color:#0F1A2B;stop-opacity:0"/>
			<stop  offset="1" style="stop-color:#0F1A2B;stop-opacity:0.5"/>
		</linearGradient>
		<path class="st0" d="M1.6,0h1276.9c0.9,0,1.6,0.7,1.6,1.6v300.1c0,0.7-0.5,1.3-1.2,1.5l-107.1,29.7l-0.2,0.1l-41.3,17.4
			c-0.8,0.3-1.2,1.3-0.8,2.1c0.2,0.5,0.7,0.9,1.3,0.9l112.7,8.3c0.9,0.1,1.5,0.8,1.4,1.7c-0.1,0.7-0.6,1.3-1.4,1.4l-152.9,18.1
			c-0.1,0-0.3,0-0.4,0l-72.6-8.9c-0.9-0.1-1.5-0.9-1.4-1.8c0.1-0.6,0.5-1.2,1.2-1.3l23-5.7c0.8-0.2,1.3-1.1,1.1-1.9
			c-0.2-0.6-0.7-1.1-1.4-1.2L928,352.9c-0.1,0-0.2,0-0.3-0.1l-40.4-12.8c-0.8-0.3-1.2-1.2-0.9-2c0.2-0.5,0.6-0.9,1.2-1l27.1-3.3
			c0.9-0.1,1.4-0.9,1.3-1.8c-0.1-0.5-0.4-1-0.9-1.2L880.7,318c-0.2-0.1-0.4-0.1-0.7-0.1l-148.6,10h-0.2l-140.9-4.7
			c-0.9-0.1-1.5-0.8-1.4-1.7c0.1-0.6,0.4-1.1,0.9-1.3l32.8-12.2c0.2-0.1,0.5-0.1,0.7-0.1l53.6,5c0.2,0,0.3,0,0.5,0l122.6-27.1
			c0.8-0.2,1.4-1,1.2-1.9c-0.2-0.7-0.8-1.2-1.5-1.2l-405.3-9.4c-0.9,0-1.5-0.8-1.5-1.6c0-0.7,0.5-1.3,1.3-1.5l0,0
			c0.9,0,1.5-0.8,1.5-1.7s-0.8-1.5-1.7-1.5L53.2,243.3c-0.9,0-1.5-0.8-1.5-1.6c0-0.6,0.4-1.1,0.9-1.4l9.9-4.9
			c0.8-0.4,1.1-1.3,0.8-2.1c-0.2-0.5-0.8-0.9-1.4-0.9L1.5,228c-0.8-0.1-1.4-0.7-1.5-1.6V1.6C0,0.7,0.7,0,1.6,0z M244,297.9l53.9-5
			h0.3l44.2,3.6c0.9,0.1,1.5,0.9,1.4,1.7c-0.1,0.7-0.7,1.3-1.4,1.4l-69.3,7.3c-0.9,0.1-1.5,0.9-1.4,1.7c0.1,0.6,0.5,1.2,1.2,1.3
			l21.7,5.3c0.8,0.2,1.4,1.1,1.1,1.9c-0.2,0.7-0.7,1.1-1.4,1.2l-79.8,4c-0.9,0.1-1.5,0.8-1.5,1.7c0,0.7,0.5,1.2,1.1,1.4l50.6,14.4
			c0.2,0.1,0.4,0.1,0.6,0l251.8-25.3c0.9-0.1,1.5-0.9,1.4-1.7c-0.1-0.7-0.7-1.3-1.4-1.4l-44-3.3c-0.9,0-1.5-0.8-1.5-1.6
			c0-0.6,0.4-1.1,0.9-1.4l14.7-7.2c0.3-0.2,0.7-0.2,1-0.1l53.4,9.9c0.2,0,0.3,0,0.5,0l73.9-8.4c0.9-0.1,1.5-0.9,1.3-1.8
			c-0.1-0.7-0.6-1.2-1.3-1.3l-121.4-13.4c-0.1,0-0.3,0-0.4,0l-67.2,9.9c-0.2,0-0.4,0-0.6,0L339,273c-0.3-0.1-0.5-0.1-0.8,0
			l-33.2,9.8c-0.2,0.1-0.4,0.1-0.6,0.1l-46.9-5c-0.1,0-0.2,0-0.4,0l-69.6,8.6c-0.9,0.1-1.4,0.9-1.3,1.8c0.1,0.7,0.6,1.2,1.3,1.3
			l56.1,8.3C243.8,297.9,243.9,297.9,244,297.9z M507.7,327.9l-45.6,7.5c-0.9,0.2-1.4,1-1.3,1.8c0.1,0.7,0.7,1.2,1.4,1.3l106.3,4.4
			c0.2,0,0.4,0,0.6-0.1l7.3-2.7c0.8-0.3,1.2-1.2,0.9-2c-0.2-0.5-0.7-0.9-1.2-1l-68-9.1C508,327.9,507.9,327.9,507.7,327.9
			L507.7,327.9z M832.6,337.9l-44.9,8.3c-0.9,0.2-1.4,1-1.3,1.8c0.1,0.6,0.6,1.1,1.3,1.3l51.6,8.5c0.3,0.1,0.7,0,1-0.1l16.6-8.2
			c0.8-0.4,1.1-1.3,0.7-2.1c-0.2-0.4-0.5-0.6-0.8-0.8l-23.2-8.6C833.1,337.9,832.9,337.9,832.6,337.9L832.6,337.9z M635.7,227.2
			l55.1,19.3c0.8,0.3,1.2,1.2,1,2c-0.1,0.4-0.4,0.7-0.8,0.9l-21.7,10.2c-0.8,0.4-1.1,1.3-0.8,2.1c0.3,0.6,0.9,1,1.5,0.9l149.8-6.7
			c0.9,0,1.6,0.7,1.6,1.5c0,0.7-0.4,1.3-1.1,1.5l-2.9,0.9c-0.8,0.3-1.3,1.2-1,2c0.2,0.6,0.8,1.1,1.5,1.1h94.3c0.3,0,0.6-0.1,0.9-0.3
			l28.4-19.9c0.7-0.5,0.9-1.5,0.4-2.2c-0.3-0.4-0.7-0.6-1.1-0.6l-73.1-6.2c-0.9-0.1-1.5-0.9-1.4-1.7c0.1-0.7,0.6-1.2,1.2-1.4
			l17.9-3.3c0.8-0.2,1.4-1,1.2-1.9c-0.1-0.7-0.7-1.2-1.4-1.2L727,210c-0.1,0-0.3,0-0.4,0L636,224.1c-0.9,0.1-1.4,0.9-1.3,1.8
			C634.8,226.5,635.2,227,635.7,227.2z M399.8,252.9h80.5c0.3,0,0.7-0.1,0.9-0.3l6-4.4c0.2-0.2,0.5-0.3,0.7-0.3l40-4.9
			c0.1,0,0.2,0,0.3-0.1l19.7-7.2c0.8-0.3,1.2-1.3,0.8-2.1c-0.2-0.5-0.7-0.9-1.3-0.9l-120.3-4.7c-0.3,0-0.6-0.1-0.9-0.3l-5.8-4.3
			c-0.4-0.3-0.8-0.4-1.2-0.3l-67.4,13.6c-0.8,0.2-1.3,1.1-1.1,1.9c0.1,0.5,0.5,0.9,1,1.1l47.6,13.2
			C399.5,252.8,399.6,252.9,399.8,252.9z M942.3,281.5l86.9,21.4c0.1,0,0.2,0,0.4,0h61.9c0.9,0,1.5-0.8,1.5-1.6
			c0-0.7-0.5-1.3-1.3-1.5l-35.2-5.7c-0.8-0.2-1.4-1-1.2-1.9c0.1-0.5,0.5-0.9,1-1.1l18-5.3c0.8-0.3,1.3-1.1,1-2
			c-0.2-0.6-0.8-1.1-1.4-1.1l-131.1-4.2c-0.9,0-1.5,0.8-1.5,1.6C941.3,280.7,941.7,281.2,942.3,281.5L942.3,281.5z M1179.4,275.4
			l39.2,12.4c0.3,0.1,0.6,0.1,0.8,0l36-8.9c0.8-0.2,1.4-1.1,1.1-1.9c-0.1-0.4-0.4-0.8-0.8-1l-16.1-7.9c-0.3-0.1-0.5-0.2-0.8-0.2
			l-59.2,4.4c-0.9,0-1.5,0.8-1.5,1.6C1178.2,274.6,1178.7,275.2,1179.4,275.4z M1280,370.9L1280,370.9l-79.4,15.3
			c-0.9,0.2-1.4,1-1.2,1.8c0.1,0.6,0.6,1.1,1.2,1.2l51.9,8.5c0.3,0,0.5,0,0.8-0.1l25.7-9.5c0.6-0.2,1-0.8,1-1.5L1280,370.9z"/>
	</g>
</g>
</svg>
