<?xml version="1.0" encoding="utf-8"?>
<!-- Generator: Adobe Illustrator 21.1.0, SVG Export Plug-In . SVG Version: 6.00 Build 0)  -->
<svg version="1.1" id="Layer_1" xmlns="http://www.w3.org/2000/svg" xmlns:xlink="http://www.w3.org/1999/xlink" x="0px" y="0px"
	 viewBox="0 0 768.7 185.4" style="enable-background:new 0 0 768.7 185.4;" xml:space="preserve">
<style type="text/css">
	.st0{fill:#F9E8D8;}
</style>
<title>beach_</title>
<path class="st0" d="M0.7,9.4V9c-2,0.5-1.8,1,0,1.5c2.7,0.6,16.1,1,18.9,1.2c3.4,0.3,6.8,0.1,10.1-0.8c1.9-0.6,3.8-1.5,5.6-2.6
	c4-1.8,5.1-3.3,10-1.3c-1.4-0.1-1.6,0.4-3,0.3l4.9,1.6c1.1-8.1,29-0.8,30.1-8.9c7,3.3,0.5,1.9-8.5,5.8l7.5,2.4
	c-3,0.3-5.6-0.3-8.8,0.5c9.8,3.4,19-0.9,24.3-3c3.7,1.2-2.9,6.1,7.7,4.8c15.1-1.6-2.9-5.9,6.2-6.9l6.6,4.2c11.6-3.2,20.2-0.3,30,0.2
	c1.3-0.1,2.6-0.5,3.8-1.2c10.4,1.8,21.7-4.1,29.6-2.7c-1.8,0.9,4.5,2.6,5.4,3.7L195.2,5c-6.2,1.1-6,3.5-7.1,5.9
	c4.4-0.3,6.5-1.6,9.5-1.9c-1.8,0.9-3.7,1.7-1.3,2.8l14.9-4c-1.3-0.4-2.6-0.6-4-0.7c3.7,0,11.7-1.6,17,0.4c-0.5,0.9-2.3,1.8-2.8,2.7
	c-4.4-2.6-7-0.4-9.3,1.4c10.2-0.4,2.6,0.6,7.5,2.3c7.2-0.1,10.2-3.3,8.3-5.3c8.1,0.9,10.7,1.5,19-0.9l-1.6,3.3l7.6-1l-6.2,4
	c14.7,2.2,2.7-5.6,19-3.8v2.9c6.3-1.1,8.4-6,13.3-2.5c6.1-1.7-10.4-4.1,3.9-4.7c2.5,1.5,7.9,2.6,12,3.2c4.1-1.2-1.9-3-5.3-3.1
	c20.2-0.9,12.7,9.8,31.5,6.1c-6.6-2.1,5.5-5.6-10.1-5.5c7.5-1.7,14.7,4.2,22.5,1l-5.1,3.7c2.8,0.1,6-1.3,7.5-1.7l-0.6,2.8
	c9.6-5,17.9,2.4,23.6-4.2c-4,5.1,7.2-0.3,11,1.7c-7.9,3.6-22.7-0.1-23.7,4.6c3.7,1.4,7-0.9,10.5,0.5c-2.4,0.7-6,1.9-7,2.9
	c12.1,2.7,19.1-2.9,26.4-4.1l-13,1.1c1-4.7,5.8-0.8,9.5-4.5c6.5,2.5,11.6-1.1,16.9,0.4c-1.4,0-1.5,0.4-2.9,0.4
	c14.2-0.1,18.1,7.6,23.8,7.7c5.5,0.6,16-2,12.2-4c4.5-1.3-18.8,1.4-10.7-4.7c8.1,7.1,16.7-2.6,34.3,2.1c-7.7,2.5,4.5,4-2.4,5.9
	c8.4-0.5,8.7-1.6,12.5-3.6l2.5,2.2c11-5,2.6-4.4,19.2-7c-5.6,1.7,6.7,3.2,2.4,4.8c4.2,0.2,8.4-0.4,12.5-1.8l-0.6,0.3
	c16.8-1.1,13.8,2.8,29.1,0.3l-1.5-1.3c20.1-3.6,45.5-1.3,66.3-3l-6.7-1c3.3,0.2,13.8-2,19.8-0.1c-1.6,0.3-3.2,0.5-4.7,0.5
	c0.2,1.5,2.7,3.7,7.7,4.1l1.9-2.3l2,1.8c7.6,0-2.2-3.2,5.4-3.2c4.4,6.5,32.8,0.9,39.4,6.6c5.2-4.7-14.4-0.7-8.7-5
	c2.3,0.7,3.3,1.6,8.3,2l-1.7-2.8c23,1.6,31.8,4,52.4,3.5l-0.8,0.6c7.3,1.1,11.2,0.6,14.5-1.9c1.5,1.3-3.7,2-0.9,3.2
	c12.9-7.2,25.7,5.3,33.5,0.3c-0.5,2.6,2.7,5.1,5.6,7.5h16.4l-0.7,162.4H0"/>
</svg>
