<?xml version="1.0" encoding="utf-8"?>
<!-- Generator: Adobe Illustrator 21.1.0, SVG Export Plug-In . SVG Version: 6.00 Build 0)  -->
<svg version="1.1" id="Layer_1" xmlns="http://www.w3.org/2000/svg" xmlns:xlink="http://www.w3.org/1999/xlink" x="0px" y="0px"
	 viewBox="0 0 600 300" style="enable-background:new 0 0 600 300;" xml:space="preserve">
<style type="text/css">
	.st0{fill:#FEEEE7;}
</style>
<title>Asset 1</title>
<path class="st0" d="M580,0c-10,0-10,10-20,10S550,0,540,0s-10,10-20,10S510,0,500,0s-10,10-20,10S470,0,460,0s-10,10-20,10
	S430,0,420,0s-10,10-20,10S390,0,380,0s-10,10-20,10S350,0,340,0s-10,10-20,10S310,0,300,0s-10,10-20,10S270,0,260,0s-10,10-20,10
	S230,0,220,0s-10,10-20,10S190,0,180,0s-10,10-20,10S150,0,140,0s-10,10-20,10S110,0,100,0S90,10,80,10S70,0,60,0S50,10,40,10
	S30,0,20,0S10,10,0,10v280c10,0,10,10,20,10s10-10,20-10s10,10,20,10s10-10,20-10s10,10,20,10s10-10,20-10s10,10,20,10s10-10,20-10
	s10,10,20,10s10-10,20-10s10,10,20,10s10-10,20-10s10,10,20,10s10-10,20-10s10,10,20,10s10-10,20-10s10,10,20,10s10-10,20-10
	s10,10,20,10s10-10,20-10s10,10,20,10s10-10,20-10s10,10,20,10s10-10,20-10s10,10,20,10s10-10,20-10s10,10,20,10s10-10,20-10
	s10,10,20,10s10-10,20-10V10C590,10,590,0,580,0z"/>
</svg>
